<?xml version="1.0" encoding="UTF-8"?><svg xmlns="http://www.w3.org/2000/svg" width="179.9927" height="104.1971" viewBox="0 0 179.9927 104.1971"><g id="Shape"><path d="m60.2547,44.1782c-.0086-.0081-.0172-.0161-.0258-.0242.0102.0099.0198.0204.0301.0302-.0015-.002-.0028-.004-.0043-.006Z" fill="#fff"/><path d="m62.2724,46.5825c-.0645-.112-.1292-.2257-.1941-.3399-.1558-.1477-.3004-.3047-.45-.4578-.1842-.1254-.3631-.2592-.5415-.3937.3914.3994.7862.7982,1.1855,1.1913Z" fill="#fff"/><path d="m63.0554,47.9036c-.0071-.0116-.0143-.0238-.0214-.0354-.2982-.2287-.5849-.4695-.8643-.7189-.1025-.0629-.206-.1236-.3067-.1898.3926.3215.7888.6378,1.1924.9441Z" fill="#fff"/><path d="m61.1263,44.5073c-.1057-.083-.2105-.1675-.315-.2531.1375.1443.2737.2914.4113.4358-.0319-.0598-.0642-.1224-.0962-.1827Z" fill="#fff"/><path d="m62.3467,48.274c-.0518-.0487-.1044-.0966-.1543-.1472-.0654-.0418-.1311-.083-.1959-.1258.117.0907.232.1838.3502.2729Z" fill="#fff"/><path d="m59.0956,40.3991c-.0138-.0165-.0275-.0331-.0412-.0497.0198.0298.0396.0596.0595.0893-.0061-.0132-.0122-.0264-.0183-.0396Z" fill="#fff"/><path d="m58.6901,40.8781c.5315.7626,1.1073,1.4848,1.6966,2.1994-.0692-.1372-.1385-.277-.208-.4168-.6451-.6843-1.2417-1.423-1.7744-2.2032.0952.1402.1877.2818.2858.4205Z" fill="#fff"/><path d="m72.715,58.8672c-.5014-.0252-1.0034-.06-1.506-.1061.5589.1065,1.1204.188,1.6825.2513-.0581-.048-.1172-.0964-.1765-.1452Z" fill="#fff"/><path d="m72.3251,58.5483c-.0517-.0422-.104-.085-.1566-.1279-.2647.0446-.5347.0725-.8092.0841.3296.0163.6528.0311.9658.0438Z" fill="#fff"/><path d="m74.2958,61.0328c.2339.0035.4673.0008.7005-.0038-.0131-.0164-.0258-.0331-.039-.0494-.2468.0189-.4935.0386-.7412.051.0266.0003.0532.002.0797.0023Z" fill="#fff"/><path d="m97.2474.8852C95.4295.3739,92.3854-.001,90.497,0l-34.8651.0194.027,35.1137c.004,5.2594,1.2353,10.4635,3.7193,15.0993,2.8956,5.4039,7.8282,11.9197,16.5191,16.4281,0,0,.6192-.8604.601-1.1941-.025-.4567-.0711-.8741-.1356-1.2614-.2709.0449-.5417.0902-.8147.1236.2693-.0609.5325-.1405.7998-.2077-.0317-.1803-.0664-.3559-.1067-.523-.2684.044-.5368.0875-.8069.1221.2636-.0624.5235-.1358.7859-.202-.0075-.0297-.0155-.0589-.0232-.0882-.5399-.023-1.08-.088-1.6119-.2051.5257.0459,1.0495.0598,1.5704.0487-.0354-.1228-.074-.2412-.1143-.3574-.7955.0138-1.5969-.0592-2.3836-.227.7725.0512,1.5406.0454,2.3051.0106-.0182-.047-.0379-.0923-.0569-.1383-.2302.0151-.4603.0316-.6912.039.2219-.0317.4411-.074.6622-.1087-.0368-.0859-.0752-.17-.115-.2526-.2296.0089-.4589.024-.6889.0246-.9909-.0187-2.0444-.0307-2.9684-.5239.6487.2049,1.3057.2407,1.9607.2409.3073-.0027.6146-.0083.9216-.0168.1939-.0278.3909-.058.5868-.0872-.0592-.1044-.1219-.2055-.1863-.3053-.7206.049-1.4445.0698-2.1692.0602.2505-.0377.5113-.0728.766-.1093-.0126.0001-.0252.0014-.0378.0015.2931-.0649.5974-.125.8972-.187-1.007.0393-2.0349-.0581-3.0015-.3059-.0382-.002-.0765-.0012-.1147-.0034.0246-.0025.0526-.0053.0776-.0078-.2493-.0649-.4952-.1377-.7346-.2218.4898.0567.9803.1074,1.4706.1481.691-.0693,1.4521-.1464,2.1859-.2267-.7226.0064-1.4473-.0226-2.1715-.1052.5619-.0389,1.2596-.0857,1.9601-.1361-.0349-.0367-.0706-.0731-.1063-.1096-1.0157-.0028-2.0267-.058-2.997-.1467.1709-.0125.3419-.0192.5128-.0289-.291-.0505-.5805-.1104-.8667-.189,1.0102.1108,2.0223.1111,3.0249.0448-.1064-.1004-.2161-.2006-.3288-.3011-1.6008.0172-3.2089-.1371-4.7372-.4855,1.4581.1254,2.9284.1946,4.3856.1785-.0328-.028-.0664-.0563-.0996-.0844-.9068-.1132-1.7975-.3349-2.6471-.6481-.8372-.0914-1.6726-.2138-2.4989-.3829.5457.032,1.1777.0697,1.8322.1066-.9901-.145-1.9693-.4787-2.8152-.9948.9707.2889,1.9357.543,2.9232.7028.6085.0969,1.2156.1555,1.8266.2039-1.1156-.1814-2.2143-.4554-3.2673-.8201-.5204-.1301-1.0357-.2786-1.5394-.4638.3998.0915.8022.1691,1.2053.2411-1.0883-.3257-2.134-.8184-3.0414-1.4782.5869.2771,1.1743.5336,1.7711.7552.509.1899,1.0262.3457,1.5472.4827-.5268-.149-1.0426-.3407-1.5345-.6098,1.1557.4293,2.3838.5871,3.5986.7067-.0823-.0718-.1654-.1451-.2492-.2194-1.4952-.3068-2.9644-.7501-4.3382-1.3364,1.103.3081,2.2191.5865,3.3388.8261-.2324-.0852-.4494-.2046-.6346-.3775-1.41-.2951-2.8213-.6871-4.1667-1.2488,1.2478.2961,2.5052.5874,3.7615.8452-1.7768-.4064-3.5068-1.1013-5.023-2.0568.8563.3479,1.7112.6732,2.5759.9552.2587.0849.5191.1626.7796.2392-1.5888-.5459-3.1195-1.2996-4.4476-2.221.8066.3584,1.619.7073,2.4375,1.0356-.3656-.185-.7219-.3797-1.0645-.5853,1.4028.4941,2.8117.991,4.2317,1.411-.0181-.0199-.0361-.0394-.0543-.0594-.1283-.0542-.2546-.1098-.3804-.1669-2.2208-.6332-4.3926-1.7494-6.126-3.2181.4538.2562.9073.5045,1.3622.7473-.3214-.1885-.6415-.3786-.9475-.58.5703.2505,1.1437.497,1.7186.7403-1.2819-.6558-2.49-1.458-3.5218-2.3841.4521.2713.9083.5359,1.3666.7963-.6553-.4512-1.273-.9412-1.833-1.4631,1.3065.7908,2.6145,1.5725,3.9662,2.2625.3746.1944.7527.3803,1.1325.562-.0245-.0198-.0514-.0366-.0757-.0566.216.1109.4326.2173.6491.3246.3413.1579.6837.3129,1.0275.4648-.0387-.0494-.0777-.1-.1166-.1501-.2031-.1039-.4078-.205-.6064-.317-.8362-.3109-1.6546-.6835-2.4467-1.1097-1.3015-.7138-2.5505-1.5577-3.6511-2.5848.3102.1841.6583.3911,1.021.6057-.3552-.2608-.7018-.527-1.0342-.7997.3003.1712.6031.3417.9041.5133-.7187-.5998-1.3706-1.2812-1.9121-2.0355.917.804,1.8495,1.5616,2.8435,2.2419-.8779-.7083-1.6834-1.4968-2.3603-2.3497,1.2241,1.0433,2.4799,2.04,3.8122,2.9183.0138.0092.0282.0175.042.0267.4294.2713.8628.5337,1.2986.7906-.2636-.1761-.5228-.3567-.7725-.5494-.8993-.5161-1.7544-1.1198-2.5425-1.7934-.974-.8483-1.8677-1.8118-2.5866-2.8908.5326.5745,1.0941,1.1192,1.6742,1.6404-.8286-.8361-1.5739-1.7437-2.178-2.7033.2725.2936.5457.5834.821.8699-.4379-.5405-.8422-1.1082-1.1884-1.7094,1.0806,1.3051,2.2724,2.5114,3.5716,3.5751.2193.1776.4494.3391.6746.5081-.002-.0037-.0046-.0068-.0066-.0105.0054.0065.0115.0118.0169.0183.6344.4755,1.2838.9286,1.9592,1.3365-.0002-.0003-.0003-.0005-.0005-.0008-.0968-.0806-.1901-.1637-.2835-.2474-2.4567-1.3946-4.717-3.6081-6.118-6.0414.5449.6252,1.0881,1.2403,1.6513,1.8339.0737.0781.153.1502.2275.2275-.1614-.2014-.3207-.4044-.4698-.6136-.6536-.9367-1.2021-1.9609-1.5493-3.0405.7469,1.3874,1.645,2.6844,2.6893,3.8524.3209.354.657.6921,1.0032,1.0186-.0605-.076-.1261-.149-.1846-.226-1.3394-1.2962-2.4937-2.8112-3.357-4.4375.105.1269.2103.2514.3151.378-.2616-.4568-.4952-.9289-.6942-1.4154.293.4489.5983.8882.9136,1.3193-.3492-.564-.6245-1.1651-.7465-1.8149.1428.331.3109.6428.4963.9418-.283-.5181-.5208-1.0557-.6988-1.6126.3978.7183.8349,1.3998,1.3171,2.0463.3218.4323.6652.8449,1.0202,1.2467-1.0519-1.2947-1.8703-2.7991-2.3381-4.3607.5274.9202,1.0618,1.8226,1.6428,2.6996-.732-1.1147-1.3368-2.2992-1.7631-3.5022.2579.4507.521.8945.789,1.3341-.3797-.8322-.6776-1.6955-.8589-2.569.115.2503.2318.4984.3491.7462-.0113-.0513-.0269-.104-.0361-.1547-.0648-.3895-.0825-.7857-.02-1.1614.0896,1.2551.6928,2.3579,1.3754,3.3994-.0294-.0731-.0619-.1453-.0895-.2189.081.1325.1694.2599.253.3907-.0526-.1204-.1054-.2425-.1582-.3643-.2089-.4099-.3902-.8323-.5385-1.2648-.2231-.5329-.4469-1.0745-.6723-1.6352l.0208-33.9722,32.4946-.0278c3.8072-.0033,7.5999.6575,11.1297,2.084,22.1825,8.9645,22.6047,31.2473,22.6047,31.2473h1.2603s0-26.0087-27.1143-33.6349Z" fill="#fff"/><path d="m71.089,57.524c-.0085-.0073-.0172-.0147-.0258-.022-.4756-.0537-.9534-.1168-1.4277-.2028.4825.0948.9671.1709,1.4535.2248Z" fill="#fff"/><path d="m64.2119,50.7513c.2364.1238.4784.2368.7164.3577-.116-.0716-.2336-.1409-.3473-.2156-.1368-.0624-.2705-.135-.4062-.2018-.0482-.0142-.097-.0238-.145-.0387.061.0317.121.0669.1821.0984Z" fill="#fff"/><path d="m69.1182,55.8032c.0308.0061.062.0104.0928.0164-.0062-.006-.0121-.0117-.0183-.0177-.176-.0311-.3523-.0573-.5277-.0942.1511.0302.3022.0668.4532.0955Z" fill="#fff"/><path d="m69.6132,56.2053c-.1778-.0301-.3566-.0564-.5334-.0895-.0819-.0163-.1637-.0368-.2456-.0538.2949.1729.6128.2503.9381.2922-.0528-.0492-.1057-.0986-.159-.1489Z" fill="#fff"/></g><g id="Derma_Capillis"><text transform="translate(.0002 90.1097) scale(1.092 1)" fill="#fff" font-family="Copperplate, Copperplate" font-size="19.3311"><tspan x="0" y="0">DERMA CAPILLIS</tspan></text></g><g id="Subtitle"><text transform="translate(65.7026 102.4588)" fill="#fff" font-family="Futura-Medium, Futura" font-size="6.0227" font-weight="500"><tspan x="0" y="0">DERMOGRAPHIE</tspan></text></g></svg>